<svg width="470" height="470" xmlns="http://www.w3.org/2000/svg">
  <defs>
    <clipPath id="me-clippath">
        <circle cx="235" cy="235" r="235" />
    </clipPath>
  </defs>
  <g id="me" style="clip-path: url(#me-clippath);">
    <g id="head">
      <ellipse id="head__base" cx="235" cy="165" rx="50" ry="70" fill="#e5b887" />
      <path id="neck" d="M 205 235
                         c 0,20 -5,35 -20,50
                         l 100 0
                         c -15,-15 -20,-30 -20,-50
                         z"
                      fill="#e5b887" />
      <g id="ears">
        <path id="ear--left" d="M 186 165
                                c -2,-2 -3,-4 -8,-4
                                c -2,2 -2,2 0,8
                                c 4,8 4,8 8,12
                                z"
                             fill="#e5b887" />
        <path id="ear--right" d="M 284 165
                                 c 2,-2 3,-4 8,-4
                                 c 2,2 2,2 0,8
                                 c -4,8 -4,8 -8,12
                                 z"
                              fill="#e5b887" />
      </g>
      <g id="eyes">
        <defs>
          <clipPath id="eye--left-clippath">
              <path d="M 225 162
                       c -6,-4 -10,-4 -16,0
                       c 6,3 10,3 16,0
                       z"/>
          </clipPath>
          <clipPath id="eye--right-clippath">
              <path d="M 245 162
                       c 6,-4 10,-4 16,0
                       c -6,3 -10,3 -16,0
                       z"/>
          </clipPath>
        </defs>
        <g id="eye--left" style="clip-path: url(#eye--left-clippath);">
          <rect x="208" y="157" width="18" height="10" fill="white"/>
          <circle cx="217" cy="162" r="4" fill="#3E260C" />
          <circle cx="217" cy="161.85" r="2.2" fill="black" />
        </g>
        <g id="eye--right" style="clip-path: url(#eye--right-clippath);">
          <rect x="244" y="157" width="18" height="10" fill="white"/>
          <circle cx="253" cy="162" r="4" fill="#3E260C" />
          <circle cx="253" cy="161.85" r="2.2" fill="black" />
        </g>
      </g>
      <g id="nose">
        <path stroke="#7f5221" stroke-width=".8" fill="transparent" d="M 231 175
                                                                     l 0 6
                                                                     c -1,4 -1,4 -4,8
                                                                     c -.5,1 -.5,1 0,2
                                                                     c 3.5,.5 3.5,.5 5,2
                                                                     c 2,1 4,1 6,0
                                                                     c 1.5,-1.5 1.5,-1.5 5,-2
                                                                     c .5,-1 .5,-1 0,-2
                                                                     c -3,-4 -3,-4 -4 -8
                                                                     l 0 -6" />
      </g>
      <g id="mouth">
        <path id="mouth__inside" fill="#34000a" d="M 215 200
                                                 l 40 0
                                                 l 0 3
                                                 c -15,10 -25,10 -40,0 z" />
        <path id="mouth__teeth" stroke="black" stroke-width=".1" fill="white" d="M 217 200
                                                                                 l 36 0
                                                                                 l 0 3
                                                                                 c -3,1 -3,1 -6,0
                                                                                 l 0 -3
                                                                                 l 0 3.5
                                                                                 c -1,1 -5,1 -6,0
                                                                                 l 0 -3.5
                                                                                 l 0 3.8
                                                                                 c 0,1 -6,1 -6,0
                                                                                 l 0 -3.8
                                                                                 l 0 3.8
                                                                                 c 0,1 -6,1 -6,0
                                                                                 l 0 -3.8
                                                                                 l 0 3.5
                                                                                 c -1,1 -5,1 -6,0
                                                                                 l 0 -3.5
                                                                                 l 0 3
                                                                                 c -3,1 -3,1 -6,0
                                                                                 l 0 -3" />
        <path id="mouth__lip--top" fill="#a87b4a" d="M 230 198
                                                     c 6,2 4,2 10,0
                                                     l 5 3
                                                     c -12,1.25 -8,1.25 -20,0
                                                     z" />
        <path id="mouth__lip--bottom" fill="#a87b4a" d="M 215 201
                                                        c 15,10 25,10 40,0
                                                        c -12,17 -27,17 -40,0" />
      </g>
      <g id="hair">
        <path d="M 184 165
                 c -3,-35 -3,-45 5,-50
                 l 15 5
                 l -16 45" fill="#3E260C"/>
        <path d="M 189 115
                 c 25,-30 65,-30 92,0
                 c 3,4 4,10 5,50
                 l -4 0
                 l -16 -45
                 c -15,4 -40,4 -62,0" fill="#3E260C" />
        <path d="M 189 115
                 l 15 5" stroke="#2b1d0e" stroke-width="1"/>
      </g>
      <g id="beard">
        <path d="M 184 165
                 c 0,65 5,85 51,85
                 l 0 -30
                 c -3,0 -5,-2 -9,-5
                 c -30,-14 -32,-10 -38,-50
                 z" fill="#3E260C"/>
        <path d="M 286 165
                 c 0,65 -5,85 -51,85
                 l 0 -30
                 c 3,0 5,-2 9,-5
                 c 30,-14 32,-10 38,-50
                 z" fill="#3E260C"/>
      </g>
      <g id="mustache">
        <path id="mustache--left" d="M 235 195
                                      c -6,-2 -12,-1 -18,0
                                      c -2,2 0,2 -3,7
                                      c -1,2 -2,1 -6,6
                                      l 5 5
                                      c 4,-3 4,-3 8,-11
                                      c 7,-1 7,-1 10,-2
                                      c 3,-1 3,-1 4,-5
                                     z" fill="#3E260C"/>
        <path id="mustache--right" d="M 235 195
                                      c 6,-2 12,-1 18,0
                                      c 2,2 0,2 3,7
                                      c 1,2 2,1 6,6
                                      l -5 5
                                      c -4,-3 -4,-3 -8,-11
                                      c -7,-1 -7,-1 -10,-2
                                      c -3,-1 -3,-1 -4,-5
                                      z" fill="#3E260C"/>
      </g>
      <g id="eyebrows">
        <path id="eyebrows--left" d="M 228 152
                                     c -10,-2 -12,-2 -22,3
                                     c -1,1 -1,1 0,2
                                     c 8,-2 8,-2 22,-1
                                     c 2,-2 2,-2 0,-4
                                     z" fill="#3E260C"/>
        <path id="eyebrows--right" d="M 242 152
                                     c 10,-2 12,-2 22,3
                                     c 1,1 1,1 0,2
                                     c -8,-2 -8,-2 -22,-1
                                     c -2,-2 -2,-2 0,-4
                                     z" fill="#3E260C"/>
      </g>
      <g id="glasses">
        <line id="glasses__earpiece--left" x1="183" y1="160" x2="203" y2="161" stroke="#171d22" stroke-width="2" />
        <line id="glasses__earpiece--right" x1="267" y1="161" x2="287" y2="160" stroke="#171d22" stroke-width="2" />
        <g id="glasses__eyepiece--left">
          <path stroke="#171d22" fill="transparent" d="M 205 169
                                                       c -2,-5 -2,-10 0,-12
                                                       c 4,-2 20,-2 24,0
                                                       c 2,2 2,7 0,12" />
          <path stroke="#d3d3d3" stroke-width=".5" fill="transparent" d="M 205 169
                                                                         c 3,3 21,3 24,0" />
        </g>
        <g id="glasses__eyepiece--right">
          <path stroke="#171d22" fill="transparent" d="M 265 169
                                                       c 2,-5 2,-10 0,-12
                                                       c -4,-2 -20,-2 -24,0
                                                       c -2,2 -2,7 0,12" />
          <path stroke="#d3d3d3" stroke-width=".5" fill="transparent" d="M 265 169
                                                                         c -3,3 -21,3 -24,0" />
        </g>
        <path id="glasses_nosepiece" stroke="#171d22" fill="transparent" d="M 231 161
                                                                            l 8 0" />
      </g>
    </g>
    <g id="upper-body">
      <g id="upper-body__torso">
        <path id="torso__shirt" fill="#e74c3c" d="M 198 265
                                                  c 25,5 50,5 74,0
                                                  c 17,-2 17,-2 35,-5
                                                  c 3,0 3,0 7,205
                                                  c -70,6 -82,6 -158,0
                                                  c 4,-190 4,-190 7,-190
                                                  c 5,-4 30,-4 35,-10" />
        <path id="torso__shirt__pocket" stroke="#c0392b" fill="transparent" d="M 255 320
                                                                        l 36 0
                                                                        l 0 30
                                                                        l -18 10
                                                                        l -18 -10
                                                                        l 0 -30
                                                                        M 255 327
                                                                        l 36 0" transform="rotate(-7 288 275)" />
      </g>
      <g id="upper-body__arm--left">
        <path id="arm--left__arm" fill="#e5b887" d="M 117 350
                                                    l -2 120
                                                    l 42 0
                                                    l 0 -120
                                                    l -42 0"/>
        <path id="arm--left__sleeve" fill="#e74c3c" d="M 163 275
                                                       c -25,10 -40,10 -50,100
                                                       c 20,2 30,2 50,0
                                                       l 0 -100"/>
      </g>
      <g id="upper-body__arm--right">
        <path id="arm--right-upper" fill="#e5b887" d="M 367 254
                                                    c 30,-6 29,-4 30,-6
                                                    l 25 40
                                                    l -60 20" />
        <path id="arm--right-lower" fill="#e5b887" d="M 397 248
                                                      c -8,-30 0,-30 -10,-100
                                                      l 25 -5
                                                      c 15,60 22,70 30,115
                                                      c 3,20 3,20 -20,30" />
        <path id="arm--right-hand" fill="#e5b887" d="M 387,149
                                                     c -2,-3 -3,-4 -6,-6
                                                     c -14,-9 -10,-5 -14,-12
                                                     c -2,-3 -2,-2 -13,-10

                                                     c 1,-3 1,-4 4,-4

                                                     c 4,1 6,2 11,6
                                                     c 6,1 10,1 8,5

                                                     c -1,-6 -1,-10 -1,-15

                                                     c -5,-11 -5,-11 -10,-27
                                                     c 1,-3 3,-3 5,-2
                                                     c 6,12 6,12 11,23

                                                     c 1,.7 2,.7 3,-1

                                                     c -4,-15 -4,-15 -7,-30
                                                     c 2,-3 4,-3 6,-1
                                                     c 6.5,19 6.5,19 9,29

                                                     c 0,.7 3,.7 3,-.5

                                                     c -1,-13 -1,-13 -1,-25.5
                                                     c 1,-4 4,-4 6,1
                                                     c 2.5,18 2.5,18 3,25

                                                     c 2,.7 2,.7 3,0.5

                                                     c 1,-10 1,-10 2,-22.5
                                                     c 2,-3 4,-2 5,1
                                                     l 0,23

                                                     c 2,32 -2,26 -2,38
                                                     z"/>
        <path id="hand--right__ring" stroke="black" stroke-width=".2" fill="#cccccc" d="M 395 102
                                                                                        l 10 0
                                                                                        l 0 2
                                                                                        l -10 0
                                                                                        l 0 -2" />
        <path id="arm--right__sleeve" fill="#e74c3c" d="M 307 260
                                                        c 0,0 15,-2 80,-10
                                                        c -8,25 -8,25 -20,60
                                                        c -50,15 -50,15 -60,10
                                                        l 0 -50" />
      </g>
    </g>
  </g>
</svg>
